<?xml version="1.0" standalone="no"?>
<!DOCTYPE svg PUBLIC "-//W3C//DTD SVG 20010904//EN"
 "http://www.w3.org/TR/2001/REC-SVG-20010904/DTD/svg10.dtd">
<svg version="1.0" xmlns="http://www.w3.org/2000/svg"
 width="500.000000pt" height="500.000000pt" viewBox="0 0 500.000000 500.000000"
 preserveAspectRatio="xMidYMid meet">

<g transform="translate(0.000000,500.000000) scale(0.100000,-0.100000)"
fill="#000000" stroke="none">
<path d="M0 2500 l0 -2500 2500 0 2500 0 0 2500 0 2500 -2500 0 -2500 0 0
-2500z m3467 1234 c3 -9 1 -25 -6 -36 -9 -15 -9 -20 3 -24 20 -8 41 -63 29
-75 -6 -6 -32 -9 -59 -7 -42 3 -49 6 -52 25 -2 14 6 32 20 46 19 19 21 26 11
36 -10 9 -10 17 -3 31 13 24 48 26 57 4z m263 -29 c0 -7 7 -15 15 -19 9 -3 14
-17 14 -33 l-2 -28 -4 28 c-5 34 -23 36 -23 2 0 -14 -4 -25 -10 -25 -5 0 -10
23 -10 51 0 31 4 48 10 44 6 -3 10 -12 10 -20z m-104 -61 c-3 -8 -13 -14 -23
-14 -17 1 -17 1 0 11 11 6 18 24 19 47 l1 37 4 -33 c3 -19 2 -40 -1 -48z m325
59 c13 -15 12 -15 -8 -3 -18 11 -24 12 -37 1 -37 -31 -4 -77 36 -52 16 10 19
10 16 -1 -6 -18 -46 -22 -64 -8 -7 7 -14 22 -14 34 0 43 45 61 71 29z m-256
-43 c0 -20 -5 -25 -25 -25 -28 0 -41 32 -18 46 23 15 43 5 43 -21z m131 -3 c1
-25 1 -25 -3 -2 -6 33 -19 32 -31 -2 l-10 -28 -1 31 c-1 26 3 31 22 30 17 -1
22 -7 23 -29z m199 3 c0 -18 -6 -26 -21 -28 -26 -4 -40 24 -23 45 18 21 44 11
44 -17z m70 0 c0 -18 -6 -26 -21 -28 -26 -4 -40 24 -23 45 18 21 44 11 44 -17z
m75 14 c16 -19 5 -44 -19 -44 -11 0 -22 -8 -24 -17 -3 -10 -5 2 -6 27 -1 38 2
46 18 47 11 1 25 -5 31 -13z m69 2 c15 -18 3 -46 -20 -46 -22 0 -34 22 -25 45
7 19 30 19 45 1z m42 0 c-5 -6 -11 -20 -14 -31 -3 -14 -5 -10 -6 11 -1 21 4
31 14 31 9 0 11 -4 6 -11z m-3408 -81 c4 -8 2 -17 -4 -21 -6 -4 -4 -13 6 -24
27 -30 15 -55 -25 -55 -40 0 -52 25 -25 55 10 11 12 20 6 24 -15 10 -1 36 19
36 10 0 20 -7 23 -15z m222 -33 c6 2 11 -8 12 -22 l2 -25 -8 25 -8 25 -11 -25
c-10 -23 -11 -21 -10 20 0 31 2 38 6 22 4 -13 12 -22 17 -20z m-99 -28 c-3 -8
-11 -14 -18 -13 -10 0 -10 2 0 6 6 2 13 19 13 36 1 25 3 27 6 9 3 -13 2 -30
-1 -38z m258 48 c3 -5 -5 -8 -17 -8 -16 1 -23 -6 -25 -23 -3 -21 -1 -23 23
-19 17 4 23 2 17 -4 -26 -26 -62 10 -48 48 6 15 41 19 50 6z m-204 -27 c13
-16 6 -35 -15 -35 -18 0 -28 17 -21 35 7 19 20 19 36 0z m109 -18 c-1 -20 -2
-20 -9 3 l-7 25 -11 -25 c-10 -23 -11 -24 -11 -3 -1 21 16 35 32 26 4 -2 7
-14 6 -26z m159 4 c-2 -9 -11 -17 -21 -19 -21 -4 -35 27 -17 38 19 12 42 0 38
-19z m50 1 c3 -17 -2 -22 -17 -22 -14 0 -21 6 -21 18 0 38 33 41 38 4z m60 5
c2 -10 -5 -20 -15 -24 -10 -4 -21 -11 -25 -17 -4 -6 -8 3 -8 21 0 42 41 59 48
20z m62 2 c0 -5 -10 -9 -22 -10 -22 0 -22 -1 -3 -9 18 -8 18 -9 2 -9 -22 -1
-35 28 -17 39 15 9 40 2 40 -11z m21 -10 c-9 -22 -10 -22 -10 -3 -1 11 2 24 6
27 12 12 14 0 4 -24z m-1099 -61 c4 -32 42 -31 46 0 4 30 24 23 33 -10 5 -20
4 -25 -6 -22 -8 3 -23 1 -34 -5 -31 -17 -71 -4 -71 23 0 40 27 51 32 14z
m3388 -39 c0 -49 -1 -50 -27 -47 -22 2 -28 8 -28 28 0 19 5 25 23 24 17 0 22
5 22 23 0 13 2 23 5 23 3 0 5 -23 5 -51z m370 1 c0 -46 -2 -50 -24 -50 -13 0
-27 7 -30 16 -8 20 13 47 31 40 9 -4 13 3 13 19 0 14 2 25 5 25 3 0 5 -22 5
-50z m-680 28 c0 -18 -109 -128 -126 -128 -20 0 -6 28 45 88 42 49 81 68 81
40z m120 -34 c0 -28 4 -35 18 -32 11 2 19 16 23 43 l6 40 2 -43 c1 -31 -3 -44
-15 -49 -27 -10 -49 11 -52 52 -2 24 0 35 7 30 6 -3 11 -22 11 -41z m114 0
c12 -31 5 -48 -8 -19 -14 30 -15 29 -29 -15 -3 -8 -6 0 -6 18 -1 25 3 32 18
32 10 0 22 -7 25 -16z m141 -14 c0 -18 -6 -26 -21 -28 -26 -4 -40 24 -23 45
18 21 44 11 44 -17z m47 18 c-5 -7 -12 -22 -15 -33 -3 -13 -5 -9 -6 13 -1 23
3 32 15 32 12 0 14 -3 6 -12z m66 -30 c-2 -32 -8 -44 -22 -46 -10 -2 -23 1
-30 8 -8 9 -4 10 17 5 17 -5 27 -3 27 4 0 6 -9 11 -19 11 -23 0 -35 28 -20 46
6 8 20 14 31 14 16 0 19 -6 16 -42z m43 28 c-5 -6 -11 -20 -14 -31 -3 -14 -5
-10 -6 11 -1 21 4 31 14 31 9 0 11 -4 6 -11z m79 -18 c0 -23 -4 -28 -25 -28
-27 0 -41 20 -31 45 3 9 16 14 31 13 20 -2 25 -8 25 -30z m-2670 -48 c0 -34
-3 -40 -20 -40 -25 0 -38 29 -19 40 7 5 17 6 21 4 4 -3 8 4 8 15 0 12 2 21 5
21 3 0 5 -18 5 -40z m-540 16 c0 -15 -74 -86 -90 -86 -20 0 -9 25 27 62 38 39
63 49 63 24z m108 -44 c9 2 20 17 23 33 6 27 7 28 8 5 2 -59 -52 -71 -56 -12
l-3 32 6 -31 c4 -21 10 -29 22 -27z m142 22 c0 -31 -3 -35 -22 -32 -28 4 -33
44 -5 42 9 -1 17 4 17 12 0 8 2 14 5 14 3 0 5 -16 5 -36z m-61 -17 c-1 -20 -2
-20 -9 3 l-7 25 -11 -25 c-10 -23 -11 -24 -11 -3 -1 21 16 35 32 26 4 -2 7
-14 6 -26z m109 15 c2 -7 -5 -12 -15 -13 -16 0 -16 -1 2 -9 19 -8 19 -9 -2 -9
-16 -1 -23 5 -23 17 0 32 28 42 38 14z m29 -7 c-9 -19 -13 -21 -15 -9 -3 13
12 33 25 34 0 0 -4 -11 -10 -25z m63 -15 c0 -33 -17 -48 -33 -30 -9 10 -9 11
0 6 6 -3 14 -2 18 4 3 5 0 10 -8 10 -19 0 -29 24 -15 38 17 17 38 2 38 -28z
m27 15 c-9 -19 -13 -21 -15 -9 -3 13 12 33 25 34 0 0 -4 -11 -10 -25z m63 -6
c0 -12 -7 -19 -19 -19 -26 0 -36 17 -21 35 15 18 40 8 40 -16z m-948 15 c10
-9 -49 -67 -61 -60 -19 12 -12 31 17 48 30 19 36 21 44 12z m65 -106 c-3 -22
-4 -21 -11 4 -5 16 -5 36 0 45 7 16 8 15 11 -4 3 -13 3 -33 0 -45z m-239 -81
c6 -51 129 -85 190 -53 38 20 62 21 62 2 0 -8 -17 -17 -42 -21 l-43 -8 58 -6
c42 -5 63 -12 73 -26 20 -27 18 -33 -18 -43 -26 -7 -36 -5 -45 7 -7 9 -13 12
-13 6 0 -5 -4 -4 -9 4 -8 12 -16 12 -55 1 -38 -10 -52 -10 -74 0 l-27 13 38
15 c20 8 37 18 37 21 0 4 -30 12 -67 18 -74 13 -93 29 -93 76 0 37 24 31 28
-6z m3238 17 c18 -14 18 -15 -6 -8 -29 9 -55 9 -90 -1 -24 -6 -24 -6 -6 9 25
20 77 20 102 0z m147 9 c-13 -2 -23 -11 -23 -19 0 -8 10 -15 23 -15 l22 -2
-22 -4 c-13 -2 -23 -11 -23 -18 0 -7 10 -16 23 -18 19 -4 18 -4 -5 -6 -27 -1
-28 1 -28 44 0 43 1 45 28 44 23 -2 24 -2 5 -6z m669 -71 c11 -2 19 5 22 20 3
13 7 32 9 43 3 11 5 4 6 -15 1 -45 -11 -63 -40 -58 -21 3 -24 9 -25 48 l-2 45
7 -40 c4 -26 12 -41 23 -43z m55 11 c-2 -16 -4 -5 -4 22 0 28 2 40 4 28 2 -13
2 -35 0 -50z m111 55 c29 -29 7 -78 -35 -78 -21 0 -23 5 -23 45 0 40 2 45 23
45 13 0 28 -5 35 -12z m-537 -51 l-5 -32 -6 30 c-7 35 -1 63 10 46 3 -6 4 -26
1 -44z m-3044 32 l28 -11 -25 -13 c-14 -8 -21 -14 -17 -15 5 0 2 -7 -7 -15
-17 -17 -30 -20 -21 -5 3 6 1 10 -6 10 -7 0 -9 3 -5 7 3 4 -4 13 -16 19 l-23
13 25 10 c33 13 34 13 67 0z m813 -24 c4 3 7 -6 6 -18 -2 -43 -26 -27 -25 17
1 23 4 31 6 18 2 -12 8 -20 13 -17z m1766 21 c15 -12 16 -17 7 -27 -15 -15
-65 -19 -60 -4 3 5 17 9 33 8 22 -2 25 0 14 7 -8 6 -28 8 -45 5 -28 -6 -29 -5
-11 10 24 19 37 19 62 1z m-2453 -3 c-27 -5 -31 -22 -5 -24 16 -1 16 -2 0 -6
-25 -6 -22 -21 5 -26 19 -4 18 -4 -5 -6 -26 -1 -28 2 -28 34 0 32 2 35 28 34
23 -2 24 -2 5 -6z m537 -13 c0 -21 15 -27 25 -10 9 14 35 0 35 -20 0 -15 -9
-18 -50 -18 l-50 0 0 34 c0 27 4 34 20 34 13 0 20 -7 20 -20z m320 -15 c0 -28
-4 -35 -20 -35 -25 0 -26 27 -2 51 23 24 22 24 22 -16z m1824 24 c10 8 13 4
13 -17 0 -19 -5 -28 -17 -28 -12 0 -17 9 -17 31 0 16 2 24 5 17 3 -9 8 -10 16
-3z m85 -3 c15 -18 3 -46 -19 -46 -10 0 -21 -8 -23 -17 -3 -10 -5 3 -6 30 -1
40 2 47 18 47 10 0 24 -6 30 -14z m70 1 c15 -19 -10 -53 -33 -44 -16 6 -22 38
-9 50 10 11 30 8 42 -6z m43 1 c-5 -7 -12 -22 -15 -33 -3 -13 -5 -9 -6 13 -1
23 3 32 15 32 12 0 14 -3 6 -12z m123 2 c4 -6 -1 -7 -12 -4 -17 5 -17 5 0 -9
23 -19 22 -37 -2 -37 -16 0 -19 6 -17 28 2 15 4 28 5 30 3 6 20 1 26 -8z m70
0 c3 -6 3 -19 0 -31 -8 -26 -48 -22 -53 5 -6 28 38 50 53 26z m62 -37 c-3 -10
-5 -2 -5 17 0 19 2 27 5 18 2 -10 2 -26 0 -35z m70 12 c2 -25 1 -26 -5 -7 -4
13 -11 23 -17 23 -5 0 -13 -10 -17 -23 -5 -20 -6 -19 -7 8 -1 26 3 31 22 30
17 -1 22 -8 24 -31z m328 25 c4 -6 13 -5 25 2 16 10 22 10 32 -1 11 -12 10
-13 -7 -7 -19 6 -19 5 -2 -8 24 -19 21 -36 -5 -35 -19 0 -20 2 -6 7 17 7 16 8
-2 20 -16 10 -21 9 -30 -8 -20 -37 -62 -14 -46 25 6 17 32 20 41 5z m82 -37
c-3 -10 -5 -2 -5 17 0 19 2 27 5 18 2 -10 2 -26 0 -35z m81 2 c-2 -29 -8 -41
-22 -43 -10 -2 -23 1 -29 7 -7 7 -4 8 10 5 12 -3 24 -1 27 5 4 7 -1 11 -14 11
-23 0 -35 22 -26 45 3 9 16 14 31 13 24 -2 26 -6 23 -43z m66 29 c12 -31 5
-48 -8 -19 -14 30 -15 29 -29 -15 -3 -8 -6 0 -6 18 -1 25 3 32 18 32 10 0 22
-7 25 -16z m-3531 -34 l-7 -25 -7 25 -6 25 -11 -25 c-10 -24 -11 -24 -11 -3
-1 23 28 47 41 35 4 -4 4 -19 1 -32z m2727 15 c0 -14 -4 -25 -10 -25 -5 0 -10
11 -10 25 0 14 5 25 10 25 6 0 10 -11 10 -25z m-2842 -8 c2 -10 -5 -20 -15
-24 -10 -4 -21 -11 -25 -17 -4 -6 -8 3 -8 21 0 42 41 59 48 20z m52 8 c10 -13
9 -15 -11 -16 -22 0 -23 -1 -4 -9 16 -7 17 -9 3 -9 -21 -1 -32 15 -24 34 7 19
20 19 36 0z m121 8 c-11 -5 -11 -7 0 -14 8 -5 20 -2 31 7 9 9 22 13 27 9 17
-10 13 -25 -6 -25 -15 0 -15 -2 -4 -9 9 -6 2 -9 -24 -9 -21 0 -33 3 -26 8 9 5
8 9 -4 14 -18 6 -11 27 8 25 8 0 7 -3 -2 -6z m168 -26 c-1 -20 -2 -20 -9 3
l-7 25 -11 -25 c-10 -23 -11 -24 -11 -3 -1 21 16 35 32 26 4 -2 7 -14 6 -26z
m186 23 c4 -6 1 -9 -6 -8 -19 5 -22 -20 -2 -25 17 -4 17 -5 0 -6 -22 -1 -34
28 -16 40 18 11 17 11 24 -1z m105 -5 c10 -13 9 -15 -11 -16 -22 0 -23 -1 -4
-9 16 -7 17 -9 3 -9 -21 -1 -32 15 -24 34 7 19 20 19 36 0z m54 -1 c11 -27 5
-40 -6 -14 l-11 25 -7 -25 c-7 -22 -8 -22 -9 -4 -2 34 22 47 33 18z m-747 -14
c1 -9 -5 -17 -12 -17 -7 0 -13 8 -12 17 0 9 6 17 12 17 6 0 12 -8 12 -17z
m200 -12 c-3 -7 -5 -2 -5 12 0 14 2 19 5 13 2 -7 2 -19 0 -25z m150 0 c-3 -7
-5 -2 -5 12 0 14 2 19 5 13 2 -7 2 -19 0 -25z m2027 -9 c-3 -5 -10 -7 -15 -3
-5 3 -7 10 -3 15 3 5 10 7 15 3 5 -3 7 -10 3 -15z m-2565 -113 c9 -10 8 -16
-4 -26 -17 -14 -45 -7 -45 13 0 29 30 37 49 13z m124 -58 c8 -5 6 -8 -5 -8
-14 0 -18 8 -17 38 2 34 2 34 6 7 3 -16 10 -33 16 -37z m177 26 c0 -31 -3 -35
-22 -32 -28 4 -33 44 -5 42 9 -1 17 4 17 12 0 8 2 14 5 14 3 0 5 -16 5 -36z
m195 -24 c8 0 16 12 18 28 4 25 4 25 3 -3 -1 -23 -6 -30 -21 -30 -15 0 -21 8
-22 33 -3 32 -3 32 3 2 3 -16 11 -30 19 -30z m63 52 c14 11 14 11 5 -7 -8 -14
-8 -25 -1 -40 10 -17 9 -18 -4 -7 -13 10 -17 10 -21 0 -3 -7 -5 5 -5 27 0 22
2 34 5 27 4 -10 8 -10 21 0z m2036 -27 c6 -17 -21 -48 -37 -42 -6 2 -15 11
-21 21 -9 13 -7 20 7 31 21 15 43 11 51 -10z m-2406 -14 c-2 -9 -11 -17 -21
-19 -21 -4 -35 27 -17 38 19 12 42 0 38 -19z m51 -4 c-1 -20 -2 -20 -9 3 l-7
25 -11 -25 c-10 -23 -11 -24 -11 -3 -1 21 16 35 32 26 4 -2 7 -14 6 -26z m109
5 c3 -17 -2 -22 -17 -22 -14 0 -21 6 -21 18 0 38 33 41 38 4z m56 12 c11 -27
5 -40 -6 -14 l-11 25 -7 -25 c-7 -22 -8 -22 -9 -4 -2 34 22 47 33 18z m3086
-65 c0 -49 -1 -50 -27 -47 -22 2 -28 8 -28 28 0 19 5 25 23 24 17 0 22 5 22
23 0 13 2 23 5 23 3 0 5 -23 5 -51z m-737 34 c-7 -2 -14 -23 -15 -46 l-1 -42
-4 40 c-3 22 -10 43 -16 47 -7 4 1 7 18 7 17 0 24 -3 18 -6z m518 -10 c13 -15
12 -15 -8 -5 -29 16 -53 5 -53 -24 0 -30 26 -42 54 -24 19 12 20 12 7 -4 -18
-22 -50 -17 -67 9 -28 43 35 87 67 48z m-230 -46 l-5 -32 -6 30 c-7 35 -1 63
10 46 3 -6 4 -26 1 -44z m-216 3 c0 -20 -5 -25 -25 -25 -28 0 -41 32 -18 46
23 15 43 5 43 -21z m37 0 c-2 -16 -8 -30 -13 -30 -5 0 -9 14 -9 30 0 18 5 30
13 30 9 0 12 -10 9 -30z m73 0 c0 -20 -5 -25 -25 -25 -28 0 -41 32 -18 46 23
15 43 5 43 -21z m69 14 c12 -31 5 -48 -8 -19 -14 30 -15 29 -29 -15 -3 -8 -6
0 -6 18 -1 25 3 32 18 32 10 0 22 -7 25 -16z m111 -14 c0 -20 -5 -25 -25 -25
-28 0 -41 32 -18 46 23 15 43 5 43 -21z m235 -2 c0 -23 -4 -28 -25 -28 -27 0
-41 20 -31 45 3 9 16 14 31 13 20 -2 25 -8 25 -30z m67 -3 c2 -25 1 -26 -5 -7
-4 13 -11 23 -17 23 -5 0 -13 -10 -17 -23 -5 -20 -6 -19 -7 8 -1 26 3 31 22
30 17 -1 22 -8 24 -31z m137 29 c9 -3 16 -17 16 -30 0 -19 -5 -24 -25 -24 -27
0 -41 20 -31 45 6 16 16 18 40 9z m-3561 -11 c-7 -2 -19 -2 -25 0 -7 3 -2 5
12 5 14 0 19 -2 13 -5z m3148 -50 c-12 -20 -14 -14 -5 12 4 9 9 14 11 11 3 -2
0 -13 -6 -23z m-551 -2 c3 -1 -1 -5 -9 -10 -16 -10 -44 -3 -36 9 3 5 13 7 23
5 9 -2 19 -4 22 -4z m-1392 -913 c15 -15 15 -51 0 -66 -10 -10 -8 -15 9 -27
26 -18 50 -82 36 -96 -6 -6 -41 -9 -79 -7 -67 3 -69 4 -72 31 -2 20 5 36 27
58 28 27 29 32 16 45 -19 19 -19 24 1 52 17 24 43 29 62 10z m362 -46 c0 -23
4 -28 23 -28 18 1 22 -5 25 -36 2 -22 -1 -38 -7 -38 -6 0 -11 14 -11 30 0 20
-5 30 -15 30 -10 0 -15 -10 -15 -30 0 -16 -4 -30 -10 -30 -6 0 -10 28 -10 65
0 37 4 65 10 65 6 0 10 -13 10 -28z m-144 -88 c-6 -15 -46 -20 -46 -5 0 5 8 8
18 7 14 -1 18 9 22 54 l4 55 4 -49 c2 -27 1 -55 -2 -62z m449 86 c22 -24 13
-26 -20 -4 -33 22 -65 4 -65 -37 0 -41 40 -61 70 -34 21 19 28 7 8 -13 -32
-32 -98 2 -98 50 0 25 36 58 63 58 13 0 32 -9 42 -20z m-355 -34 c20 -25 8
-61 -21 -64 -36 -4 -55 21 -41 53 13 28 43 33 62 11z m188 -28 c2 -22 -1 -38
-7 -38 -6 0 -11 14 -11 30 0 20 -5 30 -15 30 -10 0 -15 -10 -15 -30 0 -16 -4
-30 -10 -30 -5 0 -10 18 -10 39 0 38 1 39 33 38 29 -2 32 -5 35 -39z m262 27
c26 -32 -13 -81 -47 -59 -35 22 -23 74 17 74 10 0 23 -7 30 -15z m100 0 c26
-32 -13 -81 -47 -59 -35 22 -23 74 17 74 10 0 23 -7 30 -15z m102 -10 c14 -31
-5 -59 -38 -52 -19 3 -24 -1 -27 -27 -2 -17 -5 -2 -5 34 l-2 66 30 2 c24 2 33
-3 42 -23z m86 13 c22 -22 13 -38 -19 -38 -18 0 -28 -4 -24 -10 3 -6 18 -7 32
-4 18 5 24 3 19 -5 -10 -16 -51 -14 -66 4 -29 35 26 85 58 53z m72 2 c0 -5 -4
-10 -10 -10 -5 0 -10 -13 -10 -30 0 -16 -4 -30 -10 -30 -5 0 -10 18 -10 40 0
33 3 40 20 40 11 0 20 -4 20 -10z m-1805 -100 c3 -5 -1 -10 -9 -10 -9 0 -16 5
-16 10 0 6 4 10 9 10 6 0 13 -4 16 -10z m-80 -11 c11 -17 -1 -21 -15 -4 -8 9
-8 15 -2 15 6 0 14 -5 17 -11z m-147 -60 c-29 -56 -28 -181 3 -277 12 -38 23
-106 26 -157 5 -104 10 -126 22 -106 11 17 69 -64 83 -115 21 -79 92 -62 228
54 l39 33 60 -17 c34 -9 61 -22 61 -28 0 -14 -61 -73 -105 -103 -16 -11 -58
-31 -92 -43 -53 -19 -77 -22 -160 -18 -84 3 -107 8 -163 35 -83 40 -162 119
-203 203 -31 62 -32 69 -32 190 0 116 2 129 27 180 35 72 88 133 152 176 68
46 81 44 54 -7z m494 -50 c28 -28 63 -78 81 -117 30 -63 32 -74 32 -177 0 -83
-5 -122 -18 -158 -15 -37 -22 -45 -32 -37 -7 6 -31 64 -54 130 -24 65 -56 139
-73 164 -28 43 -29 50 -23 109 5 47 3 73 -9 101 -9 21 -16 45 -16 52 0 23 55
-10 112 -67z m-202 8 c21 -11 25 -20 25 -57 l0 -45 -46 3 c-32 3 -51 -1 -62
-12 -20 -20 -32 -20 -62 0 -25 16 -81 12 -71 -4 3 -5 -9 -6 -26 -4 -28 4 -30
7 -24 36 4 17 13 38 22 46 41 41 191 64 244 37z m660 -79 c0 -26 -138 -168
-163 -168 -36 0 -16 43 55 116 73 76 108 92 108 52z m420 -44 l0 -65 -37 3
c-31 2 -39 7 -41 26 -4 30 16 55 40 49 14 -4 18 1 18 24 0 16 5 29 10 29 6 0
10 -29 10 -66z m500 0 l0 -65 -31 3 c-61 6 -65 75 -5 71 23 -2 26 2 26 28 0
16 2 29 5 29 3 0 5 -30 5 -66z m-754 -45 c26 -21 48 2 55 57 l6 49 1 -50 c2
-55 -10 -75 -43 -75 -33 0 -45 20 -43 75 l2 50 3 -47 c2 -25 11 -52 19 -59z
m152 19 c2 -22 -1 -38 -7 -38 -6 0 -11 14 -11 30 0 20 -5 30 -15 30 -10 0 -15
-10 -15 -30 0 -16 -4 -30 -10 -30 -5 0 -10 18 -10 39 0 38 1 39 33 38 29 -2
32 -5 35 -39z m186 26 c25 -24 19 -34 -20 -34 -23 0 -33 -4 -28 -11 3 -6 17
-8 31 -4 16 4 22 2 18 -5 -10 -16 -54 -12 -63 8 -23 44 27 81 62 46z m76 6 c0
-4 -6 -10 -14 -13 -8 -3 -16 -18 -19 -34 -3 -22 -4 -19 -6 12 -1 34 2 41 19
42 11 1 20 -2 20 -7z m88 -33 c4 -51 -13 -79 -45 -75 -15 2 -29 10 -31 18 -5
13 -3 13 11 1 17 -14 47 -9 47 8 0 5 -12 11 -27 13 -22 2 -29 9 -31 32 -4 33
12 47 48 43 21 -3 26 -10 28 -40z m62 33 c0 -5 -4 -10 -10 -10 -5 0 -10 -13
-10 -30 0 -16 -4 -30 -10 -30 -5 0 -10 18 -10 40 0 33 3 40 20 40 11 0 20 -4
20 -10z m90 -32 c0 -35 -2 -38 -28 -38 -31 0 -52 16 -52 40 0 25 20 39 51 37
26 -2 29 -5 29 -39z m-1662 -11 c28 -2 52 0 52 4 0 5 6 9 14 9 7 0 20 -21 28
-47 15 -45 14 -49 -4 -61 -11 -8 -30 -11 -44 -8 -21 6 -24 3 -24 -19 0 -14 -4
-25 -8 -25 -15 0 -30 23 -25 37 5 12 -1 13 -32 7 -45 -8 -55 3 -55 61 0 29 3
36 10 25 8 -12 10 -11 10 7 0 14 5 21 13 18 6 -3 36 -6 65 -8z m161 -19 c57
-20 64 -32 39 -63 -13 -17 -27 -25 -39 -22 -10 3 -20 -2 -24 -11 -8 -22 -17
-8 -20 32 -2 19 -6 44 -10 55 -8 25 3 26 54 9z m-152 -153 c22 -5 33 -14 35
-29 4 -25 50 -35 74 -15 8 6 14 8 14 3 -1 -28 -44 -54 -89 -54 -33 0 -71 33
-71 61 0 10 -4 21 -10 24 -14 9 -12 24 3 20 6 -1 26 -6 44 -10z m143 -5 c0 -5
-5 -10 -11 -10 -5 0 -7 5 -4 10 3 6 8 10 11 10 2 0 4 -4 4 -10z m675 -102 c14
-6 25 -17 25 -24 0 -10 -6 -10 -27 2 -36 18 -84 18 -109 -1 -22 -17 -34 -19
-34 -5 0 15 52 39 87 40 18 0 44 -5 58 -12z m1715 -54 l0 -65 -31 3 c-61 6
-65 75 -5 71 23 -2 26 2 26 28 0 16 2 29 5 29 3 0 5 -30 5 -66z m-1512 49
c-38 -6 -40 -43 -3 -43 14 0 25 -4 25 -10 0 -5 -11 -10 -25 -10 -18 0 -25 -5
-25 -19 0 -15 8 -21 33 -24 28 -3 26 -4 -10 -5 l-43 -2 0 60 0 60 38 -1 c30
-2 32 -3 10 -6z m915 0 c-25 -3 -33 -9 -33 -24 0 -14 7 -19 25 -19 14 0 25 -4
25 -10 0 -5 -11 -10 -25 -10 -20 0 -25 -5 -25 -25 0 -14 -4 -25 -10 -25 -6 0
-10 27 -10 60 l0 60 43 -2 c36 -1 38 -2 10 -5z m-499 -36 c8 -6 7 -10 -1 -14
-7 -2 -14 -19 -14 -36 l-2 -32 -4 30 c-3 16 -10 34 -16 38 -9 6 -9 10 1 14 6
2 12 12 13 21 0 14 2 14 6 2 3 -8 11 -19 17 -23z m811 -15 c-3 -8 -5 -25 -5
-38 0 -13 -4 -24 -10 -24 -5 0 -10 13 -10 28 0 15 -5 33 -12 40 -9 9 -9 12 0
12 7 0 12 8 12 18 1 15 2 15 16 -3 8 -11 12 -26 9 -33z m-1451 28 c43 -16 30
-26 -34 -25 -62 0 -76 9 -37 25 29 12 41 12 71 0z m295 -27 c9 -17 10 -17 16
0 4 9 11 17 16 17 6 0 5 -9 -1 -20 -8 -14 -8 -26 0 -40 11 -21 -3 -29 -16 -9
-4 8 -9 8 -17 0 -18 -18 -28 -12 -15 9 10 16 10 24 0 40 -7 11 -8 20 -3 20 6
0 14 -8 20 -17z m133 -8 c14 -31 -5 -59 -38 -52 -19 3 -24 -1 -27 -27 -2 -17
-5 -2 -5 34 l-2 66 30 2 c24 2 33 -3 42 -23z m86 13 c22 -22 13 -38 -19 -38
-18 0 -28 -4 -24 -10 3 -6 18 -7 32 -4 18 5 24 3 19 -5 -10 -16 -51 -14 -66 4
-29 35 26 85 58 53z m72 2 c0 -5 -4 -10 -10 -10 -5 0 -10 -13 -10 -30 0 -16
-4 -30 -10 -30 -5 0 -10 18 -10 40 0 33 3 40 20 40 11 0 20 -4 20 -10z m87
-52 c-2 -13 -4 -3 -4 22 0 25 2 35 4 23 2 -13 2 -33 0 -45z m69 50 c5 -8 2 -9
-9 -5 -23 9 -21 -1 5 -22 12 -10 18 -23 14 -29 -9 -15 -56 -16 -56 -1 0 6 9 8
20 4 11 -3 20 -2 20 4 0 5 -9 13 -20 16 -30 9 -25 45 6 45 7 0 16 -5 20 -12z
m92 0 c22 -22 13 -38 -19 -38 -18 0 -28 -4 -24 -10 4 -6 16 -8 27 -4 14 4 18
2 14 -5 -9 -15 -39 -14 -54 1 -24 24 -7 68 28 68 9 0 21 -5 28 -12z m89 -50
c-2 -13 -4 -3 -4 22 0 25 2 35 4 23 2 -13 2 -33 0 -45z m89 17 c1 -34 1 -35
-3 -7 -6 42 -35 40 -44 -3 -6 -27 -7 -26 -8 11 -1 39 1 41 27 40 25 -1 27 -5
28 -41z m204 35 c0 -5 -4 -10 -10 -10 -5 0 -10 -13 -10 -30 0 -16 -4 -30 -10
-30 -5 0 -10 18 -10 40 0 33 3 40 20 40 11 0 20 -4 20 -10z m80 -4 c20 -25 8
-61 -21 -64 -36 -4 -55 21 -41 53 13 28 43 33 62 11z m98 -28 c2 -22 -1 -38
-7 -38 -6 0 -11 14 -11 30 0 20 -5 30 -15 30 -10 0 -15 -10 -15 -30 0 -16 -4
-30 -10 -30 -5 0 -10 18 -10 39 0 38 1 39 33 38 29 -2 32 -5 35 -39z m146 26
c25 -24 19 -34 -20 -34 -23 0 -33 -4 -28 -11 3 -6 17 -8 31 -4 16 4 22 2 18
-5 -10 -16 -54 -12 -63 8 -23 44 27 81 62 46z m92 -29 c1 -34 1 -35 -3 -7 -5
42 -36 41 -41 -1 -5 -38 -22 -34 -22 6 0 41 3 44 38 43 24 -1 27 -5 28 -41z
m-1633 11 c-2 -5 -16 -9 -33 -9 -42 2 -42 2 -35 14 8 12 71 8 68 -5z m-18 -35
c7 -12 -12 -24 -25 -16 -11 7 -4 25 10 25 5 0 11 -4 15 -9z m29 -213 c24 -40
-44 -80 -71 -42 -17 23 -16 29 3 49 20 20 53 16 68 -7z m403 -95 c-2 -21 -4
-6 -4 32 0 39 2 55 4 38 2 -18 2 -50 0 -70z m106 90 c-7 -2 -13 -13 -13 -23 0
-10 6 -21 13 -24 10 -5 10 -7 0 -12 -7 -3 -14 -20 -14 -37 l-2 -32 -4 30 c-3
16 -10 34 -16 38 -9 6 -9 10 1 14 6 2 12 16 12 29 0 16 5 24 18 23 10 0 12 -3
5 -6z m-252 -13 c10 -6 19 -15 19 -21 0 -5 -11 -2 -25 7 -23 15 -27 15 -50 0
-30 -20 -32 -47 -4 -72 19 -17 22 -18 50 -2 29 17 39 12 17 -10 -32 -32 -98 0
-98 46 0 50 46 76 91 52z m117 -72 c3 -33 2 -35 -32 -36 -38 -1 -58 19 -48 48
7 22 24 30 52 27 21 -3 26 -10 28 -39z m69 -20 c-2 -13 -4 -3 -4 22 0 25 2 35
4 23 2 -13 2 -33 0 -45z m153 48 c20 -25 8 -61 -21 -64 -36 -4 -55 21 -41 53
13 28 43 33 62 11z m80 3 c0 -5 -7 -9 -15 -9 -10 0 -15 -10 -15 -30 0 -16 -4
-30 -10 -30 -10 0 -15 62 -5 71 8 9 45 8 45 -2z m67 -1 c15 -12 18 -68 3 -68
-5 0 -10 14 -10 30 0 41 -27 39 -39 -2 l-9 -33 -1 40 c-1 35 2 41 21 42 12 1
28 -3 35 -9z m40 -50 c-2 -13 -4 -3 -4 22 0 25 2 35 4 23 2 -13 2 -33 0 -45z
m103 22 c0 -32 -3 -36 -29 -38 -39 -3 -58 21 -43 53 9 20 18 25 42 23 27 -2
30 -5 30 -38z m-892 -98 c2 -8 -7 -12 -27 -12 -29 0 -46 11 -35 23 10 10 57 2
62 -11z"/>
<path d="M3654 3669 c-10 -17 13 -36 27 -22 12 12 4 33 -11 33 -5 0 -12 -5
-16 -11z"/>
<path d="M3986 3665 c-3 -9 1 -18 10 -22 19 -7 28 2 21 22 -8 19 -23 19 -31 0z"/>
<path d="M4056 3665 c-3 -9 1 -18 10 -22 19 -7 28 2 21 22 -8 19 -23 19 -31 0z"/>
<path d="M4134 3669 c-10 -17 13 -36 27 -22 12 12 4 33 -11 33 -5 0 -12 -5
-16 -11z"/>
<path d="M4205 3670 c-3 -5 1 -10 9 -10 9 0 16 5 16 10 0 6 -4 10 -9 10 -6 0
-13 -4 -16 -10z"/>
<path d="M1025 3549 c-10 -15 3 -25 16 -12 7 7 7 13 1 17 -6 3 -14 1 -17 -5z"/>
<path d="M1286 3553 c-11 -11 -6 -23 9 -23 8 0 15 4 15 9 0 13 -16 22 -24 14z"/>
<path d="M1340 3545 c0 -8 5 -15 10 -15 6 0 10 7 10 15 0 8 -4 15 -10 15 -5 0
-10 -7 -10 -15z"/>
<path d="M1396 3552 c-3 -6 -1 -14 5 -17 15 -10 25 3 12 16 -7 7 -13 7 -17 1z"/>
<path d="M3754 3429 c-10 -17 13 -36 27 -22 12 12 4 33 -11 33 -5 0 -12 -5
-16 -11z"/>
<path d="M4126 3425 c-3 -9 1 -18 10 -22 19 -7 28 2 21 22 -8 19 -23 19 -31 0z"/>
<path d="M3830 3430 c0 -5 7 -10 16 -10 8 0 12 5 9 10 -3 6 -10 10 -16 10 -5
0 -9 -4 -9 -10z"/>
<path d="M3838 3403 c7 -3 16 -2 19 1 4 3 -2 6 -13 5 -11 0 -14 -3 -6 -6z"/>
<path d="M3940 3421 c0 -12 6 -21 16 -21 9 0 14 7 12 17 -5 25 -28 28 -28 4z"/>
<path d="M4053 3425 c-7 -20 2 -29 21 -22 9 4 13 13 10 22 -8 19 -23 19 -31 0z"/>
<path d="M1396 3363 c-11 -11 -6 -23 9 -23 8 0 15 4 15 9 0 13 -16 22 -24 14z"/>
<path d="M1105 3359 c-10 -15 3 -25 16 -12 7 7 7 13 1 17 -6 3 -14 1 -17 -5z"/>
<path d="M1246 3362 c-3 -6 -1 -14 5 -17 15 -10 25 3 12 16 -7 7 -13 7 -17 1z"/>
<path d="M1336 3362 c-3 -6 -1 -14 5 -17 15 -10 25 3 12 16 -7 7 -13 7 -17 1z"/>
<path d="M4430 3164 c0 -28 3 -35 18 -32 21 4 29 47 10 59 -23 15 -28 10 -28
-27z"/>
<path d="M848 3173 c7 -3 16 -2 19 1 4 3 -2 6 -13 5 -11 0 -14 -3 -6 -6z"/>
<path d="M1520 3160 c0 -5 5 -10 10 -10 6 0 10 5 10 10 0 6 -4 10 -10 10 -5 0
-10 -4 -10 -10z"/>
<path d="M1576 3142 c-3 -6 -1 -14 5 -17 15 -10 25 3 12 16 -7 7 -13 7 -17 1z"/>
<path d="M1520 3130 c0 -5 7 -10 15 -10 8 0 15 5 15 10 0 6 -7 10 -15 10 -8 0
-15 -4 -15 -10z"/>
<path d="M1840 3135 c0 -8 5 -15 10 -15 6 0 10 7 10 15 0 8 -4 15 -10 15 -5 0
-10 -7 -10 -15z"/>
<path d="M3747 3163 c-13 -12 -7 -33 8 -33 8 0 15 9 15 20 0 20 -11 26 -23 13z"/>
<path d="M3815 3160 c-3 -5 1 -10 10 -10 9 0 13 5 10 10 -3 6 -8 10 -10 10 -2
0 -7 -4 -10 -10z"/>
<path d="M3818 3133 c7 -3 16 -2 19 1 4 3 -2 6 -13 5 -11 0 -14 -3 -6 -6z"/>
<path d="M4050 3160 c0 -5 5 -10 10 -10 6 0 10 5 10 10 0 6 -4 10 -10 10 -5 0
-10 -4 -10 -10z"/>
<path d="M4515 3160 c-3 -5 1 -10 10 -10 9 0 13 5 10 10 -3 6 -8 10 -10 10 -2
0 -7 -4 -10 -10z"/>
<path d="M4518 3133 c7 -3 16 -2 19 1 4 3 -2 6 -13 5 -11 0 -14 -3 -6 -6z"/>
<path d="M4664 3159 c-10 -17 13 -36 27 -22 12 12 4 33 -11 33 -5 0 -12 -5
-16 -11z"/>
<path d="M1096 3142 c-3 -6 -1 -14 5 -17 15 -10 25 3 12 16 -7 7 -13 7 -17 1z"/>
<path d="M1145 2959 c-10 -15 3 -25 16 -12 7 7 7 13 1 17 -6 3 -14 1 -17 -5z"/>
<path d="M1036 2963 c-11 -11 -6 -23 9 -23 8 0 15 4 15 9 0 13 -16 22 -24 14z"/>
<path d="M1200 2955 c0 -8 5 -15 10 -15 6 0 10 7 10 15 0 8 -4 15 -10 15 -5 0
-10 -7 -10 -15z"/>
<path d="M4324 2889 c-10 -17 13 -36 27 -22 12 12 4 33 -11 33 -5 0 -12 -5
-16 -11z"/>
<path d="M3664 2889 c-10 -17 13 -36 27 -22 12 12 4 33 -11 33 -5 0 -12 -5
-16 -11z"/>
<path d="M3774 2889 c-10 -17 13 -36 27 -22 12 12 4 33 -11 33 -5 0 -12 -5
-16 -11z"/>
<path d="M3954 2889 c-10 -17 13 -36 27 -22 12 12 4 33 -11 33 -5 0 -12 -5
-16 -11z"/>
<path d="M4184 2889 c-10 -17 13 -36 27 -22 12 12 4 33 -11 33 -5 0 -12 -5
-16 -11z"/>
<path d="M4406 2893 c-12 -12 -6 -33 9 -33 8 0 15 6 15 14 0 17 -14 28 -24 19z"/>
<path d="M2340 1821 c0 -24 13 -33 35 -25 23 9 14 38 -13 42 -16 3 -22 -2 -22
-17z"/>
<path d="M2787 1826 c-3 -8 1 -20 9 -27 12 -10 18 -9 31 3 8 9 12 21 9 27 -10
16 -43 14 -49 -3z"/>
<path d="M2884 1829 c-8 -14 21 -43 35 -35 19 12 13 46 -8 46 -11 0 -23 -5
-27 -11z"/>
<path d="M2984 1829 c-8 -14 21 -43 35 -35 19 12 13 46 -8 46 -11 0 -23 -5
-27 -11z"/>
<path d="M3088 1833 c6 -2 18 -2 25 0 6 3 1 5 -13 5 -14 0 -19 -2 -12 -5z"/>
<path d="M2474 1499 c-3 -6 0 -18 9 -26 18 -18 37 -9 37 18 0 21 -34 27 -46 8z"/>
<path d="M2977 1496 c-7 -17 18 -40 33 -31 5 3 10 15 10 26 0 23 -35 27 -43 5z"/>
<path d="M2588 1503 c6 -2 18 -2 25 0 6 3 1 5 -13 5 -14 0 -19 -2 -12 -5z"/>
<path d="M2723 1494 c-3 -8 -1 -20 5 -26 16 -16 42 -2 42 22 0 24 -38 28 -47
4z"/>
<path d="M2877 1496 c-7 -17 18 -40 33 -31 5 3 10 15 10 26 0 23 -35 27 -43 5z"/>
<path d="M3757 1126 c-7 -17 18 -40 33 -31 5 3 10 15 10 26 0 23 -35 27 -43 5z"/>
<path d="M2454 1129 c-8 -14 21 -43 35 -35 6 4 11 16 11 27 0 21 -34 27 -46 8z"/>
<path d="M2558 1133 c6 -2 18 -2 25 0 6 3 1 5 -13 5 -14 0 -19 -2 -12 -5z"/>
<path d="M2878 1133 c6 -2 18 -2 25 0 6 3 1 5 -13 5 -14 0 -19 -2 -12 -5z"/>
<path d="M3330 1121 c0 -24 13 -33 35 -25 23 9 14 38 -13 42 -16 3 -22 -2 -22
-17z"/>
<path d="M3588 1133 c6 -2 18 -2 25 0 6 3 1 5 -13 5 -14 0 -19 -2 -12 -5z"/>
<path d="M2402 788 c4 -30 43 -33 43 -3 0 13 -8 21 -23 23 -20 3 -23 0 -20
-20z"/>
<path d="M2640 791 c0 -24 13 -33 35 -25 23 9 14 38 -13 42 -16 3 -22 -2 -22
-17z"/>
<path d="M2920 791 c0 -27 19 -36 37 -18 18 18 9 37 -18 37 -12 0 -19 -7 -19
-19z"/>
</g>
</svg>
